<svg xmlns="http://www.w3.org/2000/svg" width="70" height="18" viewBox="0 0 70 18" fill="none">
<path d="M22.8438 0.369879C20.2399 0.366468 18.5154 1.73905 18.2729 3.79141C18.2162 4.26574 18.1579 4.73986 18.098 5.21378H51.978C51.978 5.21378 52.0417 4.7138 52.0912 4.3125C52.3459 2.24497 51.4675 0.370132 48.2723 0.370132V0.370385C48.2723 0.370385 24.2165 0.371396 22.8438 0.369879ZM2.16729 0.370511L1.57267 5.21378H16.9373L17.5296 0.370638H2.16704H2.16729V0.370511ZM53.7429 0.370511L53.1495 5.21378H69.806C69.806 5.21378 69.8262 5.03865 69.9 4.46854C70.3053 1.28948 68.2544 0.370511 66.2741 0.370511H53.7429ZM52.9201 7.05791L51.6222 17.6282L57.3687 17.6261L58.6677 7.05993L52.9201 7.05766V7.05791ZM63.837 7.05791L62.5371 17.6282L68.2837 17.6261L69.5826 7.05993L63.837 7.05766V7.05791ZM1.34852 7.05943L0.0483398 17.6287H15.412L15.978 13.0435L6.35769 13.0425L6.60105 11.0654H16.2176L16.7099 7.05968H1.34928L1.34852 7.05943ZM17.8726 7.05943C17.451 9.81798 18.8318 11.065 20.7888 11.065C21.8532 11.065 28.5621 11.0619 28.5621 11.0619L28.3195 13.0422L17.1387 13.0432L16.5757 17.6283C16.5757 17.6283 28.7481 17.6323 29.2414 17.6283C29.6487 17.599 32.4962 17.5211 33.4656 15.1922C33.78 14.4361 34.058 11.725 34.1358 11.1559C34.5836 7.85053 32.2951 7.06246 30.4928 7.06246C29.4991 7.06246 19.8346 7.05943 17.8726 7.05943ZM35.7582 7.05943L34.4603 17.6287H40.2038L41.0125 11.0654H48.2268C50.2727 11.0654 51.3725 9.96531 51.5767 8.48811C51.6419 8.01277 51.7009 7.53658 51.7536 7.05968H35.7582V7.05943Z" fill="white"/>
</svg>