<svg xmlns="http://www.w3.org/2000/svg" width="80" height="22" viewBox="0 0 80 22" fill="none">
<path fill-rule="evenodd" clip-rule="evenodd" d="M76.2408 6.51107C76.6196 5.9248 77.1311 5.48261 77.7754 5.18202C78.4196 4.88144 79.1603 4.73238 80 4.73238V7.97676C79.6477 7.94694 79.4113 7.93204 79.2882 7.93204C78.381 7.93204 77.6692 8.21275 77.1553 8.77667C76.6413 9.34058 76.3832 10.1852 76.3832 11.3106V17.0317H73.2151V4.6032L76.2408 6.74459V6.51107ZM65.5375 7.41532C64.7919 7.41532 64.1646 7.64387 63.6579 8.10097C63.1512 8.55806 62.8423 9.07477 62.7289 9.54677H68.3243C68.2109 9.08968 67.902 8.57545 67.3953 8.1109C66.8886 7.64636 66.2685 7.41532 65.5375 7.41532ZM71.2318 10.9528C71.2318 10.9975 71.21 11.3056 71.169 11.8819H62.5673C62.7217 12.6197 63.0884 13.201 63.6651 13.6283C64.2418 14.0556 64.9608 14.2692 65.8198 14.2692C66.4109 14.2692 66.9369 14.1773 67.3929 13.9935C67.8514 13.8097 68.2784 13.519 68.6717 13.1215L70.4259 15.1114C69.3546 16.3932 67.791 17.0342 65.7353 17.0342C64.4541 17.0342 63.3201 16.7733 62.3332 16.2492C61.3464 15.725 60.5863 14.9996 60.0507 14.073C59.515 13.1439 59.2472 12.0906 59.2472 10.9106C59.2472 9.7306 59.5126 8.69717 60.041 7.76063C60.5694 6.82408 61.2957 6.09621 62.2174 5.57204C63.1415 5.04788 64.1718 4.78704 65.3131 4.78704C66.4543 4.78704 67.4339 5.03794 68.3339 5.53975C69.2363 6.04156 69.9433 6.75949 70.4572 7.69604C70.9712 8.63259 71.2293 9.71818 71.2293 10.9553M51.6637 14.155C52.5323 14.155 53.2441 13.8693 53.8014 13.2979C54.3588 12.7266 54.6363 11.9614 54.6363 11.0025C54.6363 10.0436 54.3588 9.27848 53.8014 8.70711C53.2441 8.13574 52.5323 7.85006 51.6637 7.85006C50.795 7.85006 50.0832 8.13574 49.5259 8.70711C48.9685 9.27848 48.691 10.0436 48.691 11.0025C48.691 11.9614 48.9685 12.7266 49.5259 13.2979C50.0832 13.8693 50.795 14.155 51.6637 14.155ZM52.0618 4.78455C53.1065 4.78455 54.0572 5.04042 54.9137 5.55466C55.7703 6.06889 56.4435 6.7893 56.9309 7.7184C57.4183 8.64749 57.662 9.7306 57.662 10.9653C57.662 12.1999 57.4183 13.283 56.9309 14.2121C56.4435 15.1412 55.7703 15.8641 54.9137 16.3759C54.0572 16.8901 53.1065 17.146 52.0618 17.146C50.6261 17.146 49.4993 16.6615 48.6766 15.6952V21.2971H45.4168V4.46409L48.5294 6.42413V6.34463C49.3377 5.30375 50.5151 4.78207 52.0618 4.78207M37.6065 7.41781C36.8609 7.41781 36.2336 7.64636 35.7269 8.10345C35.2202 8.56054 34.9113 9.07726 34.7979 9.54926H40.3933C40.2799 9.09216 39.971 8.57793 39.4643 8.11339C38.9577 7.64884 38.3376 7.41781 37.6065 7.41781ZM43.3008 10.9553C43.3008 11 43.279 11.3081 43.238 11.8844H34.6363C34.7907 12.6222 35.1574 13.2035 35.7341 13.6308C36.3108 14.0581 37.0298 14.2717 37.8888 14.2717C38.4799 14.2717 39.0059 14.1798 39.4619 13.996C39.9204 13.8122 40.345 13.5215 40.7407 13.124L42.4949 15.1139C41.4236 16.3957 39.8601 17.0366 37.8043 17.0366C36.5231 17.0366 35.3891 16.7758 34.4022 16.2516C33.4154 15.7275 32.6553 15.0021 32.1197 14.0755C31.584 13.1464 31.3162 12.0931 31.3162 10.9131C31.3162 9.73309 31.5792 8.69966 32.1076 7.76311C32.636 6.82657 33.3623 6.0987 34.284 5.57453C35.2057 5.05036 36.2384 4.78952 37.3797 4.78952C38.5209 4.78952 39.5005 5.04042 40.4005 5.54223C41.3029 6.04404 42.0099 6.76198 42.5238 7.69852C43.0378 8.63507 43.2959 9.72067 43.2959 10.9578M29.4631 10.9578C29.4631 11.0025 29.4414 11.3106 29.4004 11.8869H20.7986C20.9531 12.6247 21.3198 13.206 21.8965 13.6333C22.4732 14.0606 23.1922 14.2742 24.0512 14.2742C24.6423 14.2742 25.1683 14.1823 25.6243 13.9985C26.0828 13.8146 26.5074 13.524 26.9031 13.1265L28.6573 15.1164C27.586 16.3982 26.0224 17.0391 23.9643 17.0391C22.6831 17.0391 21.549 16.7783 20.5622 16.2541C19.5753 15.73 18.8153 15.0046 18.2796 14.078C17.744 13.1489 17.4762 12.0956 17.4762 10.9156C17.4762 9.73557 17.7392 8.70214 18.27 7.7656C18.7984 6.82905 19.5223 6.10118 20.4464 5.57701C21.3705 5.05285 22.4008 4.792 23.542 4.792C24.6833 4.792 25.6629 5.04291 26.5629 5.54472C27.4653 6.04653 28.1723 6.76446 28.6862 7.70101C29.2001 8.63755 29.4583 9.72315 29.4583 10.9603M21.7541 8.01899C22.2608 7.56189 22.8882 7.33335 23.6337 7.33335C24.3793 7.33335 24.9849 7.56438 25.4916 8.02892C25.9983 8.49347 26.3072 9.0077 26.4206 9.46479H20.8252C20.9386 8.99279 21.2474 8.47608 21.7541 8.01899ZM15.3746 2.53635L12.2476 0.703003V17.0764H15.3746V2.53635ZM2.15949 16.6665C3.06189 16.91 3.98601 17.0317 4.93184 17.0317C6.04657 17.0317 7.00929 16.8727 7.82 16.5572C8.63072 16.2392 9.2484 15.7945 9.67306 15.2207C10.0953 14.6468 10.3076 13.991 10.3076 13.2532C10.3076 12.3837 10.0881 11.7055 9.65135 11.2186C9.21462 10.7317 8.69827 10.3964 8.10713 10.2125C7.51357 10.0287 6.75353 9.85481 5.82217 9.69334C4.98975 9.56168 4.38412 9.42008 4.0029 9.27351C3.62167 9.12694 3.43105 8.86858 3.43105 8.50092C3.43105 8.17549 3.60719 7.91217 3.95946 7.70598C4.31174 7.49979 4.84256 7.39545 5.54711 7.39545C6.73181 7.39545 7.82242 7.53954 8.52455 7.93204L10.0808 5.97697C9.55966 5.65402 8.74653 5.2491 7.9503 5.06278C7.15165 4.87895 6.353 4.78704 5.54711 4.78704C4.46133 4.78704 3.51792 4.94851 2.72168 5.27394C1.92544 5.59937 1.31741 6.0515 0.902401 6.6328C0.48498 7.2141 0.277476 7.88236 0.277476 8.63259C0.277476 9.53187 0.499457 10.225 0.943419 10.7119C1.38738 11.1988 1.91338 11.5366 2.52141 11.7279C3.12704 11.9192 3.89673 12.0881 4.82809 12.2372C5.6195 12.339 6.2034 12.4657 6.58463 12.6123C6.96586 12.7588 7.15647 13.0023 7.15647 13.3426C7.15647 14.0655 6.45916 14.4258 5.06213 14.4258C4.36965 14.4258 3.6651 14.3189 2.94607 14.1053C2.55761 13.9885 2.45627 13.986 2.36458 13.9562C2.28737 13.9289 2.2174 13.8817 1.98576 13.7252L0 15.7498C0.53565 16.1175 1.25709 16.4231 2.15949 16.6665Z" fill="white"/>
</svg>