<svg xmlns="http://www.w3.org/2000/svg" width="80" height="24" viewBox="0 0 80 24" fill="none">
<path d="M74.8772 0.905396L70.2906 11.9878H75.4142L80 0.905396H74.8764H74.8772ZM68.7287 15.9676C68.7287 17.5058 69.9241 18.7747 71.5341 18.7747C73.144 18.7747 74.4374 17.4568 74.4374 15.8697C74.4374 14.2825 73.242 13.0625 71.6311 13.0625C70.0203 13.0625 68.7278 14.4049 68.7278 15.9676H68.7287ZM64.093 12.4521C64.093 11.0853 63.0681 9.98696 61.6532 9.98696C60.2383 9.98696 59.2134 11.0853 59.2134 12.4521C59.2134 13.819 60.2383 14.9173 61.6532 14.9173C63.0681 14.9173 64.093 13.819 64.093 12.4521ZM50.284 12.4521C50.284 11.0853 49.2591 9.98696 47.8442 9.98696C46.4292 9.98696 45.4043 11.0853 45.4043 12.4521C45.4043 13.819 46.4292 14.9173 47.8442 14.9173C49.2591 14.9173 50.284 13.819 50.284 12.4521ZM20.665 14.9663C19.2256 14.9663 18.1273 13.8679 18.1273 12.4521C18.1273 11.0363 19.2256 9.93799 20.665 9.93799C22.1045 9.93799 23.1783 11.0363 23.1783 12.4521C23.1783 13.8679 22.08 14.9663 20.665 14.9663ZM0 6.3246L5.2207 18.6523L3.3423 23.0947H7.92899L14.8829 6.3246H10.3207L7.49 13.5015L4.68464 6.3246H0ZM54.3827 12.4521C54.3827 16.1136 51.5765 18.8726 47.8442 18.8726C44.1118 18.8726 41.3056 16.1145 41.3056 12.4521C41.3056 8.78979 44.1118 6.03165 47.8442 6.03165C51.5765 6.03165 54.3827 8.78979 54.3827 12.4521ZM68.1918 12.4521C68.1918 16.1136 65.3864 18.8726 61.6532 18.8726C57.92 18.8726 55.1147 16.1145 55.1147 12.4521C55.1147 8.78979 57.92 6.03165 61.6532 6.03165C65.3864 6.03165 68.1918 8.78979 68.1918 12.4521ZM28.692 0.905396V18.5543H33.0102V12.0368C33.0102 10.767 33.6197 10.0106 34.5957 10.0106C35.5716 10.0106 36.084 10.6699 36.084 11.8907V18.5552H40.4023V10.8658C40.4023 7.88732 38.7923 6.03252 36.2056 6.03252C34.8152 6.03252 33.7413 6.56946 32.9848 7.52178V0.905396H28.6911H28.692ZM23.0804 6.3246V7.47193C22.4219 6.61756 21.202 6.03165 19.7871 6.03165C16.4448 6.03165 13.956 8.98567 13.956 12.4521C13.956 15.9186 16.4203 18.8726 19.7871 18.8726C21.202 18.8726 22.4219 18.3112 23.0804 17.4079V18.5552H27.2526V6.3246H23.0804Z" fill="white"/>
</svg>